# xmcd CD database file
#
# Track frame offsets:
#	182
#	13330
#	44492
#	65595
#	90825
#	101705
#	122895
#	134047
#	172757
#	203950
#	232847
#	281152
#	309295
#
# Disc length: 4350 seconds
#
# Revision: 0
# Processed by: cddbd v1.5PL3 Copyright (c) Steve Scherf et al.
# Submitted via: CDex 1.50
#
DISCID=b510fc0d
DTITLE=Roland Kirk - Booker Ervin - Soulful Saxes
DYEAR=1900
DGENRE=Jazz
TTITLE0=Roland's Theme
TTITLE1=Slow Groove
TTITLE2=Stormy Weather
TTITLE3=The Nearness of You
TTITLE4=Al La Carte
TTITLE5=Easy Living
TTITLE6=Triple Threat
TTITLE7=The Blue Book
TTITLE8=Git It
TTITLE9=Little Jane
TTITLE10=The Book Cooks
TTITLE11=Largo
TTITLE12=Poor Butterfly
EXTD=
EXTT0=
EXTT1=
EXTT2=
EXTT3=
EXTT4=
EXTT5=
EXTT6=
EXTT7=
EXTT8=
EXTT9=
EXTT10=
EXTT11=
EXTT12=
PLAYORDER=
